<svg xmlns="http://www.w3.org/2000/svg" viewBox="0 0 205.28 166"><defs><style>.cls-1{fill:#efd82e;}.cls-2{fill:#f94141;}</style></defs><g id="Layer_2" data-name="Layer 2"><g id="Layer_1-2" data-name="Layer 1"><path class="cls-1" d="M103,82.32c0-.78,0-1.55.06-2.32H3.5a3.5,3.5,0,0,0,0,7h99.76A42.62,42.62,0,0,1,103,82.32Zm-6.1-23a3.5,3.5,0,1,0-2.68,6.46l10.57,4.38a40.73,40.73,0,0,1,2.58-6.5Zm8.24,36.22-9.92,4.11a3.5,3.5,0,0,0,2.68,6.46l10-4.15A40.23,40.23,0,0,1,105.14,95.57ZM91.82,24.62a3.5,3.5,0,1,0-4.95,4.95l25.88,25.88a39.91,39.91,0,0,1,4.92-5Zm22,85.8L85,139.21A3.5,3.5,0,0,0,90,144.16l28.94-28.94A40.59,40.59,0,0,1,113.83,110.42ZM124.5,119l-5.5,11.5a3.5,3.5,0,0,0,1.65,4.66,3.45,3.45,0,0,0,1.52.35,3.5,3.5,0,0,0,3.15-2l5.55-11.6A41.7,41.7,0,0,1,124.5,119ZM128,31a3.5,3.5,0,1,0-6.47,2.68l4.59,11.1a41.89,41.89,0,0,1,6.5-2.63ZM145.25,0a3.44,3.44,0,0,0-2.47,1,3.46,3.46,0,0,0-1,2.47V40.44c1.07-.08,2.16-.12,3.25-.12,1.26,0,2.51.06,3.75.17V3.5A3.5,3.5,0,0,0,145.25,0ZM145,124.32c-1.09,0-2.18,0-3.25-.12v38.3a3.5,3.5,0,0,0,7,0V124.15C147.51,124.26,146.26,124.32,145,124.32Zm24.35,6.48-4.71-11.37a40.69,40.69,0,0,1-6.43,2.76l4.67,11.28a3.5,3.5,0,1,0,6.47-2.67Zm.9-99.43A3.49,3.49,0,0,0,165.58,33l-4.93,10.33a40.64,40.64,0,0,1,6.25,3.15l5-10.47A3.5,3.5,0,0,0,170.25,31.37Zm26.43,69.31L184.8,95.75a41.29,41.29,0,0,1-2.8,6.42l12,5a3.5,3.5,0,0,0,2.68-6.46Zm2.89-40.44A3.5,3.5,0,0,0,195,58.35l-12.46,5.16A40.77,40.77,0,0,1,185.16,70l12.52-5.19a3.49,3.49,0,0,0,1.89-4.57ZM202,81a3.46,3.46,0,0,0-2.47-1H186.94c0,.77.06,1.54.06,2.32a42.62,42.62,0,0,1-.26,4.68H199.5a3.5,3.5,0,0,0,3.5-3.5A3.46,3.46,0,0,0,202,81Zm.44-54.25a3.51,3.51,0,0,0-4.95,0L173.1,51.15a40.59,40.59,0,0,1,4.8,5.09l24.51-24.51A3.49,3.49,0,0,0,202.41,26.78Zm1.84,110.27-27.4-27.4a39.91,39.91,0,0,1-5,4.92L199.3,142a3.5,3.5,0,0,0,4.95-4.95Z"/><circle class="cls-2" cx="145" cy="82.32" r="28"/></g></g></svg>