<svg viewBox="0 0 559.5 178.3"><defs><style>.cls-1{fill:#efd82e}.cls-2{fill:#f94141}</style></defs><g id="Layer_2" data-name="Layer 2"><g id="Layer_1-2" data-name="Layer 1"><path class="cls-1" d="M103 82v-2H4a4 4 0 000 7h99a43 43 0 010-5zm-6-23a4 4 0 10-3 7l11 4a41 41 0 012-6zm8 37l-10 4a4 4 0 003 6l10-4a40 40 0 01-3-6zM92 25a4 4 0 10-5 5l26 25a40 40 0 015-5zm22 85l-29 29a4 4 0 005 5l29-29a41 41 0 01-5-5zm11 9l-6 12a4 4 0 002 4 3 3 0 001 1 4 4 0 003-2l6-12a42 42 0 01-6-3zm3-88a4 4 0 10-6 3l4 11a42 42 0 017-3zm17-31a3 3 0 00-2 1 3 3 0 00-1 2v37a44 44 0 017 0V4a4 4 0 00-4-4zm0 124h-3v38a4 4 0 007 1v-39h-4zm24 7l-4-12a41 41 0 01-7 3l5 11a4 4 0 106-2zm1-100a3 3 0 00-4 2l-5 10a41 41 0 016 3l5-10a4 4 0 00-2-5zm27 70l-12-5a41 41 0 01-3 6l12 5a4 4 0 003-6zm3-41a4 4 0 00-5-2l-12 6a41 41 0 012 6l13-5a3 3 0 002-5zm2 21a3 3 0 00-2-1h-13v2a43 43 0 010 5h13a4 4 0 003-3 3 3 0 00-1-3zm0-54a4 4 0 00-5 0l-24 24a41 41 0 015 5l24-24a3 3 0 000-5zm2 110l-27-27a40 40 0 01-5 5l27 27a4 4 0 005-5z"/><path class="cls-2" d="M186 55h24v63h9V55h23v-9h-56v9zM255 55h23v63h10V55h23v-9h-56v9zM369 83a20 20 0 006-4 19 19 0 003-6 19 19 0 001-7 25 25 0 00-1-7 16 16 0 00-3-6 19 19 0 00-7-5 30 30 0 00-12-2h-25v72h10V86h11l18 32h12l-20-33a19 19 0 007-2zm-15-5h-13V55h13a35 35 0 015 0 15 15 0 015 2 9 9 0 014 3 12 12 0 011 6 12 12 0 01-1 6 9 9 0 01-4 4 15 15 0 01-5 1 35 35 0 01-5 1zM426 46l-32 72h12l7-18h34l7 18h11l-30-72zm-10 46l14-33 13 33zM544 46l-22 54h-1l-22-54h-15v72h10V59l24 59h7l24-59v59h10V46h-15zM99 46H86L54 77h-1V46h-9v72h9V82h1l34 36h14L65 79l34-33z"/><circle class="cls-2" cx="145" cy="82.3" r="28"/><path class="cls-1" d="M296 149v3h-5v-7h-6v7h-5l-1-1v-3l1-2v-2l-1-1v-4l1-1v-3h-1v-1h1v-1h4l1 1v6h6v-6l1-1 2 1 1-1h1v1h1l-1 1v1l1 1v11zM325 149v3h-15v-19h5l1 1h1l1-1h6v1h1v3l-1 1h-9v2h9v5h-1l-1-1h-1l-2 1h-4v2h10v1zM358 151v1h-5v-1l-1-2h-9v2h-1v1h-5v-1l1-1v-2h1v-2l1-2 1-1v-1l1-2 1-1v-2h1v-2l1-1h6v2l1 1v1l1 1v1l1 2v1l1 1v1l1 2 1 1 1 2zm-8-7h-1v-3l-1-1v-1h-1v1l-1 1v2l-1 1h5zM385 151v1h-14v-19h5v14h1l1 1v-1h7v3zM409 135v3h-5v14h-5v-14h-5l-1-1v-3h1v-1h15v2zM439 149v3h-5v-7h-6v2l-1 2 1 2-1 1h-5v-18h1v-1h4v7h7v-7h1l1 1h1l1-1h1v15zM469 149v1h-1v1h-1l-1 1h-8l-1-1h-1v-1h-1l-1-1v-1h-1v-2l-1-1v-5l1-1v-1l1-1v-1h1v-1h1l1-1h1v-1h8v1h1l1 1h1v2h-1v1h-1v1h-1l-1-1h-2v-1h-2v1h-2v1h-1v2h-1v3l1 1v1l1 1h1v1h3l1-1h1l1-1h1v1h1v1l1 1zM502 151v1h-5v-1l-1-2h-9v2l-1 1h-5v-2h1v-2l1-1v-1l1-2 1-2 1-2 1-1v-2h1v-2l1-1v-1h5v1h1v1l1 2v1l1 1v1l1 1v1l1 1v2l1 2 1 1 1 2zm-8-7l-1-2v-1l-1-1v-1h-1v1l-1 1v2l-1 1h5zM532 152h-6l-1-2-1-1-1-2-1-1h-2v6h-5v-19h2l3 1 2-1h1l1 1h4l1 1h1v2h1v6h-1v1h-1v1h-2 1v2h1l1 1 1 2 1 1v1zm-8-10h1l1-1v-3h-6v4h3zM559 149v3h-14v-19h4l2 1 2-1h6v5h-9v2h8v4h-8v3h9v1z"/></g></g></svg>